<svg id="Layer_1" data-name="Layer 1" xmlns="http://www.w3.org/2000/svg" viewBox="0 0 229.97 129.98"><defs><style>.cls-1{fill:#f6f6f6;}.cls-2{fill:#fff;}.cls-3{fill:#e5e5e5;}</style></defs><title>Untitled-3</title><rect class="cls-1" x="1.13" y="1.13" width="227.7" height="127.72" rx="3.6" ry="3.6"/><path class="cls-2" d="M225.24,2.27a2.47,2.47,0,0,1,2.47,2.47V125.25a2.47,2.47,0,0,1-2.47,2.47H4.74a2.47,2.47,0,0,1-2.47-2.47V4.74A2.47,2.47,0,0,1,4.74,2.27h220.5m0-2.27H4.74A4.75,4.75,0,0,0,0,4.74V125.25A4.75,4.75,0,0,0,4.74,130h220.5a4.75,4.75,0,0,0,4.74-4.74V4.74A4.75,4.75,0,0,0,225.24,0Z"/><path class="cls-3" d="M225.24,1.28a3.46,3.46,0,0,1,3.46,3.46V125.25a3.46,3.46,0,0,1-3.46,3.46H4.74a3.46,3.46,0,0,1-3.46-3.46V4.74A3.46,3.46,0,0,1,4.74,1.28h220.5m0-1.28H4.74A4.75,4.75,0,0,0,0,4.74V125.25A4.75,4.75,0,0,0,4.74,130h220.5a4.75,4.75,0,0,0,4.74-4.74V4.74A4.75,4.75,0,0,0,225.24,0Z"/></svg>